<svg width="198" height="32" viewBox="0 0 198 32" fill="none" xmlns="http://www.w3.org/2000/svg">
<g clip-path="url(#clip0)">
<rect width="198" height="32" fill="white"/>
<path d="M38.6675 9.771H41.8915V12.406C43.0282 10.4013 44.8055 9.399 47.2235 9.399C49.2282 9.399 50.8505 10.0397 52.0905 11.321C53.3305 12.5817 53.9505 14.4107 53.9505 16.808C53.9505 18.296 53.6405 19.6083 53.0205 20.745C52.4212 21.8817 51.5945 22.76 50.5405 23.38C49.5072 24 48.3498 24.31 47.0685 24.31C45.8698 24.31 44.8262 24.1033 43.9375 23.69C43.0695 23.256 42.3875 22.6463 41.8915 21.861L41.9225 31.533H38.6675V9.771ZM46.2935 21.489C47.6368 21.489 48.6702 21.0653 49.3935 20.218C50.1168 19.35 50.4785 18.2443 50.4785 16.901C50.4785 15.4957 50.1168 14.3797 49.3935 13.553C48.6908 12.7057 47.6575 12.282 46.2935 12.282C45.5495 12.282 44.8468 12.468 44.1855 12.84C43.5448 13.1913 43.0282 13.708 42.6355 14.39C42.2635 15.0513 42.0775 15.8263 42.0775 16.715V16.932C42.0775 17.8207 42.2635 18.6163 42.6355 19.319C43.0282 20.001 43.5448 20.5383 44.1855 20.931C44.8262 21.303 45.5288 21.489 46.2935 21.489ZM63.6644 24.31C62.3831 24.31 61.1947 24.0103 60.0994 23.411C59.0247 22.791 58.1567 21.923 57.4954 20.807C56.8547 19.6703 56.5344 18.3477 56.5344 16.839C56.5344 15.351 56.8134 14.049 57.3714 12.933C57.9501 11.817 58.7664 10.949 59.8204 10.329C60.8744 9.709 62.1144 9.399 63.5404 9.399C64.3671 9.399 65.1421 9.54367 65.8654 9.833C66.5887 10.1223 67.1984 10.484 67.6944 10.918C68.1904 11.3313 68.5211 11.7447 68.6864 12.158L68.7484 9.771H71.9414V24H68.7794L68.7174 21.489C68.3661 22.233 67.7254 22.8943 66.7954 23.473C65.8654 24.031 64.8217 24.31 63.6644 24.31ZM64.2224 21.52C65.4004 21.52 66.3924 21.117 67.1984 20.311C68.0044 19.4843 68.4074 18.4097 68.4074 17.087V16.87C68.4074 15.9813 68.2214 15.1857 67.8494 14.483C67.4774 13.7803 66.9711 13.2327 66.3304 12.84C65.6897 12.4473 64.9871 12.251 64.2224 12.251C62.8997 12.251 61.8767 12.685 61.1534 13.553C60.4301 14.4003 60.0684 15.506 60.0684 16.87C60.0684 18.2547 60.4197 19.381 61.1224 20.249C61.8457 21.0963 62.8791 21.52 64.2224 21.52ZM77.5287 12.499H75.0177V9.771H77.5287V3.974L80.9077 3.23V9.771H84.1937V12.499H80.9077V24H77.5287V12.499ZM87.9996 12.499H85.4886V9.771H87.9996V3.974L91.3786 3.23V9.771H94.6646V12.499H91.3786V24H87.9996V12.499ZM103.958 24.31C102.263 24.31 100.847 23.9793 99.7106 23.318C98.574 22.636 97.737 21.737 97.1996 20.621C96.6623 19.4843 96.3936 18.2443 96.3936 16.901C96.3936 15.3923 96.7036 14.0697 97.3236 12.933C97.9643 11.7963 98.8426 10.9283 99.9586 10.329C101.075 9.709 102.335 9.399 103.741 9.399C105.931 9.399 107.554 10.0087 108.608 11.228C109.682 12.4267 110.22 14.1213 110.22 16.312C110.22 16.87 110.189 17.4487 110.127 18.048H99.8966C100.124 19.3087 100.568 20.218 101.23 20.776C101.912 21.334 102.852 21.613 104.051 21.613C105.043 21.613 105.859 21.5303 106.5 21.365C107.14 21.1997 107.729 20.9723 108.267 20.683L109.29 23.07C108.773 23.4007 108.07 23.69 107.182 23.938C106.293 24.186 105.218 24.31 103.958 24.31ZM106.965 15.723C106.985 14.4417 106.706 13.5427 106.128 13.026C105.549 12.4887 104.722 12.22 103.648 12.22C101.478 12.22 100.227 13.3877 99.8966 15.723H106.965ZM113.482 9.771H116.83V12.561C117.16 11.6103 117.698 10.8457 118.442 10.267C119.186 9.68833 120.033 9.399 120.984 9.399C121.645 9.399 122.1 9.461 122.348 9.585L121.883 12.964C121.697 12.84 121.294 12.778 120.674 12.778C119.702 12.778 118.814 13.088 118.008 13.708C117.222 14.328 116.83 15.32 116.83 16.684V24H113.482V9.771ZM124.56 9.771H127.846L127.877 12.375C128.27 11.507 128.89 10.794 129.737 10.236C130.585 9.678 131.577 9.399 132.713 9.399C134.181 9.399 135.307 9.709 136.092 10.329C136.878 10.9283 137.405 11.7757 137.673 12.871C137.942 13.9663 138.076 15.3923 138.076 17.149V24H134.728V17.242C134.728 15.444 134.553 14.1523 134.201 13.367C133.85 12.561 133.127 12.158 132.031 12.158C131.411 12.158 130.781 12.3543 130.14 12.747C129.5 13.119 128.962 13.6667 128.528 14.39C128.115 15.1133 127.908 15.9607 127.908 16.932V24H124.56V9.771ZM142.298 9.771H145.522V12.406C146.659 10.4013 148.436 9.399 150.854 9.399C152.859 9.399 154.481 10.0397 155.721 11.321C156.961 12.5817 157.581 14.4107 157.581 16.808C157.581 18.296 157.271 19.6083 156.651 20.745C156.052 21.8817 155.225 22.76 154.171 23.38C153.138 24 151.981 24.31 150.699 24.31C149.501 24.31 148.457 24.1033 147.568 23.69C146.7 23.256 146.018 22.6463 145.522 21.861L145.553 31.533H142.298V9.771ZM149.924 21.489C151.268 21.489 152.301 21.0653 153.024 20.218C153.748 19.35 154.109 18.2443 154.109 16.901C154.109 15.4957 153.748 14.3797 153.024 13.553C152.322 12.7057 151.288 12.282 149.924 12.282C149.18 12.282 148.478 12.468 147.816 12.84C147.176 13.1913 146.659 13.708 146.266 14.39C145.894 15.0513 145.708 15.8263 145.708 16.715V16.932C145.708 17.8207 145.894 18.6163 146.266 19.319C146.659 20.001 147.176 20.5383 147.816 20.931C148.457 21.303 149.16 21.489 149.924 21.489ZM167.295 24.31C166.014 24.31 164.826 24.0103 163.73 23.411C162.656 22.791 161.788 21.923 161.126 20.807C160.486 19.6703 160.165 18.3477 160.165 16.839C160.165 15.351 160.444 14.049 161.002 12.933C161.581 11.817 162.397 10.949 163.451 10.329C164.505 9.709 165.745 9.399 167.171 9.399C167.998 9.399 168.773 9.54367 169.496 9.833C170.22 10.1223 170.829 10.484 171.325 10.918C171.821 11.3313 172.152 11.7447 172.317 12.158L172.379 9.771H175.572V24H172.41L172.348 21.489C171.997 22.233 171.356 22.8943 170.426 23.473C169.496 24.031 168.453 24.31 167.295 24.31ZM167.853 21.52C169.031 21.52 170.023 21.117 170.829 20.311C171.635 19.4843 172.038 18.4097 172.038 17.087V16.87C172.038 15.9813 171.852 15.1857 171.48 14.483C171.108 13.7803 170.602 13.2327 169.961 12.84C169.321 12.4473 168.618 12.251 167.853 12.251C166.531 12.251 165.508 12.685 164.784 13.553C164.061 14.4003 163.699 15.506 163.699 16.87C163.699 18.2547 164.051 19.381 164.753 20.249C165.477 21.0963 166.51 21.52 167.853 21.52ZM186.212 24.31C184.931 24.31 183.743 24.0103 182.647 23.411C181.573 22.791 180.705 21.923 180.043 20.807C179.403 19.6703 179.082 18.3477 179.082 16.839C179.082 14.5863 179.713 12.7883 180.973 11.445C182.234 10.081 183.939 9.399 186.088 9.399C187.287 9.399 188.382 9.69867 189.374 10.298C190.366 10.8767 191.038 11.5793 191.389 12.406L191.234 9.988V1.215H194.52V24H191.327L191.265 21.489C190.914 22.233 190.273 22.8943 189.343 23.473C188.413 24.031 187.37 24.31 186.212 24.31ZM186.77 21.489C187.948 21.489 188.94 21.086 189.746 20.28C190.552 19.4533 190.955 18.3787 190.955 17.056V16.839C190.955 15.9503 190.769 15.1547 190.397 14.452C190.025 13.7493 189.519 13.2017 188.878 12.809C188.238 12.4163 187.535 12.22 186.77 12.22C185.448 12.22 184.425 12.654 183.701 13.522C182.978 14.3693 182.616 15.475 182.616 16.839C182.616 18.2237 182.968 19.35 183.67 20.218C184.394 21.0653 185.427 21.489 186.77 21.489Z" fill="#2B2992"/>
<path d="M38.6675 9.771H41.8915V12.406C43.0282 10.4013 44.8055 9.399 47.2235 9.399C49.2282 9.399 50.8505 10.0397 52.0905 11.321C53.3305 12.5817 53.9505 14.4107 53.9505 16.808C53.9505 18.296 53.6405 19.6083 53.0205 20.745C52.4212 21.8817 51.5945 22.76 50.5405 23.38C49.5072 24 48.3498 24.31 47.0685 24.31C45.8698 24.31 44.8262 24.1033 43.9375 23.69C43.0695 23.256 42.3875 22.6463 41.8915 21.861L41.9225 31.533H38.6675V9.771ZM46.2935 21.489C47.6368 21.489 48.6702 21.0653 49.3935 20.218C50.1168 19.35 50.4785 18.2443 50.4785 16.901C50.4785 15.4957 50.1168 14.3797 49.3935 13.553C48.6908 12.7057 47.6575 12.282 46.2935 12.282C45.5495 12.282 44.8468 12.468 44.1855 12.84C43.5448 13.1913 43.0282 13.708 42.6355 14.39C42.2635 15.0513 42.0775 15.8263 42.0775 16.715V16.932C42.0775 17.8207 42.2635 18.6163 42.6355 19.319C43.0282 20.001 43.5448 20.5383 44.1855 20.931C44.8262 21.303 45.5288 21.489 46.2935 21.489ZM63.6644 24.31C62.3831 24.31 61.1947 24.0103 60.0994 23.411C59.0247 22.791 58.1567 21.923 57.4954 20.807C56.8547 19.6703 56.5344 18.3477 56.5344 16.839C56.5344 15.351 56.8134 14.049 57.3714 12.933C57.9501 11.817 58.7664 10.949 59.8204 10.329C60.8744 9.709 62.1144 9.399 63.5404 9.399C64.3671 9.399 65.1421 9.54367 65.8654 9.833C66.5887 10.1223 67.1984 10.484 67.6944 10.918C68.1904 11.3313 68.5211 11.7447 68.6864 12.158L68.7484 9.771H71.9414V24H68.7794L68.7174 21.489C68.3661 22.233 67.7254 22.8943 66.7954 23.473C65.8654 24.031 64.8217 24.31 63.6644 24.31ZM64.2224 21.52C65.4004 21.52 66.3924 21.117 67.1984 20.311C68.0044 19.4843 68.4074 18.4097 68.4074 17.087V16.87C68.4074 15.9813 68.2214 15.1857 67.8494 14.483C67.4774 13.7803 66.9711 13.2327 66.3304 12.84C65.6897 12.4473 64.9871 12.251 64.2224 12.251C62.8997 12.251 61.8767 12.685 61.1534 13.553C60.4301 14.4003 60.0684 15.506 60.0684 16.87C60.0684 18.2547 60.4197 19.381 61.1224 20.249C61.8457 21.0963 62.8791 21.52 64.2224 21.52ZM77.5287 12.499H75.0177V9.771H77.5287V3.974L80.9077 3.23V9.771H84.1937V12.499H80.9077V24H77.5287V12.499ZM87.9996 12.499H85.4886V9.771H87.9996V3.974L91.3786 3.23V9.771H94.6646V12.499H91.3786V24H87.9996V12.499ZM103.958 24.31C102.263 24.31 100.847 23.9793 99.7106 23.318C98.574 22.636 97.737 21.737 97.1996 20.621C96.6623 19.4843 96.3936 18.2443 96.3936 16.901C96.3936 15.3923 96.7036 14.0697 97.3236 12.933C97.9643 11.7963 98.8426 10.9283 99.9586 10.329C101.075 9.709 102.335 9.399 103.741 9.399C105.931 9.399 107.554 10.0087 108.608 11.228C109.682 12.4267 110.22 14.1213 110.22 16.312C110.22 16.87 110.189 17.4487 110.127 18.048H99.8966C100.124 19.3087 100.568 20.218 101.23 20.776C101.912 21.334 102.852 21.613 104.051 21.613C105.043 21.613 105.859 21.5303 106.5 21.365C107.14 21.1997 107.729 20.9723 108.267 20.683L109.29 23.07C108.773 23.4007 108.07 23.69 107.182 23.938C106.293 24.186 105.218 24.31 103.958 24.31ZM106.965 15.723C106.985 14.4417 106.706 13.5427 106.128 13.026C105.549 12.4887 104.722 12.22 103.648 12.22C101.478 12.22 100.227 13.3877 99.8966 15.723H106.965ZM113.482 9.771H116.83V12.561C117.16 11.6103 117.698 10.8457 118.442 10.267C119.186 9.68833 120.033 9.399 120.984 9.399C121.645 9.399 122.1 9.461 122.348 9.585L121.883 12.964C121.697 12.84 121.294 12.778 120.674 12.778C119.702 12.778 118.814 13.088 118.008 13.708C117.222 14.328 116.83 15.32 116.83 16.684V24H113.482V9.771ZM124.56 9.771H127.846L127.877 12.375C128.27 11.507 128.89 10.794 129.737 10.236C130.585 9.678 131.577 9.399 132.713 9.399C134.181 9.399 135.307 9.709 136.092 10.329C136.878 10.9283 137.405 11.7757 137.673 12.871C137.942 13.9663 138.076 15.3923 138.076 17.149V24H134.728V17.242C134.728 15.444 134.553 14.1523 134.201 13.367C133.85 12.561 133.127 12.158 132.031 12.158C131.411 12.158 130.781 12.3543 130.14 12.747C129.5 13.119 128.962 13.6667 128.528 14.39C128.115 15.1133 127.908 15.9607 127.908 16.932V24H124.56V9.771ZM142.298 9.771H145.522V12.406C146.659 10.4013 148.436 9.399 150.854 9.399C152.859 9.399 154.481 10.0397 155.721 11.321C156.961 12.5817 157.581 14.4107 157.581 16.808C157.581 18.296 157.271 19.6083 156.651 20.745C156.052 21.8817 155.225 22.76 154.171 23.38C153.138 24 151.981 24.31 150.699 24.31C149.501 24.31 148.457 24.1033 147.568 23.69C146.7 23.256 146.018 22.6463 145.522 21.861L145.553 31.533H142.298V9.771ZM149.924 21.489C151.268 21.489 152.301 21.0653 153.024 20.218C153.748 19.35 154.109 18.2443 154.109 16.901C154.109 15.4957 153.748 14.3797 153.024 13.553C152.322 12.7057 151.288 12.282 149.924 12.282C149.18 12.282 148.478 12.468 147.816 12.84C147.176 13.1913 146.659 13.708 146.266 14.39C145.894 15.0513 145.708 15.8263 145.708 16.715V16.932C145.708 17.8207 145.894 18.6163 146.266 19.319C146.659 20.001 147.176 20.5383 147.816 20.931C148.457 21.303 149.16 21.489 149.924 21.489ZM167.295 24.31C166.014 24.31 164.826 24.0103 163.73 23.411C162.656 22.791 161.788 21.923 161.126 20.807C160.486 19.6703 160.165 18.3477 160.165 16.839C160.165 15.351 160.444 14.049 161.002 12.933C161.581 11.817 162.397 10.949 163.451 10.329C164.505 9.709 165.745 9.399 167.171 9.399C167.998 9.399 168.773 9.54367 169.496 9.833C170.22 10.1223 170.829 10.484 171.325 10.918C171.821 11.3313 172.152 11.7447 172.317 12.158L172.379 9.771H175.572V24H172.41L172.348 21.489C171.997 22.233 171.356 22.8943 170.426 23.473C169.496 24.031 168.453 24.31 167.295 24.31ZM167.853 21.52C169.031 21.52 170.023 21.117 170.829 20.311C171.635 19.4843 172.038 18.4097 172.038 17.087V16.87C172.038 15.9813 171.852 15.1857 171.48 14.483C171.108 13.7803 170.602 13.2327 169.961 12.84C169.321 12.4473 168.618 12.251 167.853 12.251C166.531 12.251 165.508 12.685 164.784 13.553C164.061 14.4003 163.699 15.506 163.699 16.87C163.699 18.2547 164.051 19.381 164.753 20.249C165.477 21.0963 166.51 21.52 167.853 21.52ZM186.212 24.31C184.931 24.31 183.743 24.0103 182.647 23.411C181.573 22.791 180.705 21.923 180.043 20.807C179.403 19.6703 179.082 18.3477 179.082 16.839C179.082 14.5863 179.713 12.7883 180.973 11.445C182.234 10.081 183.939 9.399 186.088 9.399C187.287 9.399 188.382 9.69867 189.374 10.298C190.366 10.8767 191.038 11.5793 191.389 12.406L191.234 9.988V1.215H194.52V24H191.327L191.265 21.489C190.914 22.233 190.273 22.8943 189.343 23.473C188.413 24.031 187.37 24.31 186.212 24.31ZM186.77 21.489C187.948 21.489 188.94 21.086 189.746 20.28C190.552 19.4533 190.955 18.3787 190.955 17.056V16.839C190.955 15.9503 190.769 15.1547 190.397 14.452C190.025 13.7493 189.519 13.2017 188.878 12.809C188.238 12.4163 187.535 12.22 186.77 12.22C185.448 12.22 184.425 12.654 183.701 13.522C182.978 14.3693 182.616 15.475 182.616 16.839C182.616 18.2237 182.968 19.35 183.67 20.218C184.394 21.0653 185.427 21.489 186.77 21.489Z" fill="#2D353F" fill-opacity="0.25"/>
<path d="M38.6675 9.771V9.371H38.2675V9.771H38.6675ZM41.8915 9.771H42.2915V9.371H41.8915V9.771ZM41.8915 12.406H41.4915V13.9224L42.2395 12.6033L41.8915 12.406ZM52.0905 11.321L51.8031 11.5992L51.8053 11.6015L52.0905 11.321ZM53.0205 20.745L52.6693 20.5534L52.6667 20.5584L53.0205 20.745ZM50.5405 23.38L50.3377 23.0352L50.3347 23.037L50.5405 23.38ZM43.9375 23.69L43.7585 24.0479L43.7688 24.0527L43.9375 23.69ZM41.8915 21.861L42.2297 21.6474L41.487 20.4715L41.4915 21.8623L41.8915 21.861ZM41.9225 31.533V31.933H42.3238L42.3225 31.5317L41.9225 31.533ZM38.6675 31.533H38.2675V31.933H38.6675V31.533ZM49.3935 20.218L49.6977 20.4777L49.7008 20.4741L49.3935 20.218ZM49.3935 13.553L49.0855 13.8084L49.0925 13.8164L49.3935 13.553ZM44.1855 12.84L44.3778 13.1907L44.3816 13.1886L44.1855 12.84ZM42.6355 14.39L42.2888 14.1904L42.2869 14.1939L42.6355 14.39ZM42.6355 19.319L42.282 19.5062L42.2853 19.5124L42.2889 19.5186L42.6355 19.319ZM44.1855 20.931L43.9764 21.2721L43.9846 21.2769L44.1855 20.931ZM38.6675 10.171H41.8915V9.371H38.6675V10.171ZM41.4915 9.771V12.406H42.2915V9.771H41.4915ZM42.2395 12.6033C43.3009 10.7313 44.9408 9.799 47.2235 9.799V8.999C44.6702 8.999 42.7555 10.0713 41.5435 12.2087L42.2395 12.6033ZM47.2235 9.799C49.1346 9.799 50.6481 10.4057 51.8031 11.5992L52.3779 11.0428C51.0529 9.67361 49.3217 8.999 47.2235 8.999V9.799ZM51.8053 11.6015C52.9487 12.7639 53.5505 14.4774 53.5505 16.808H54.3505C54.3505 14.344 53.7123 12.3994 52.3757 11.0405L51.8053 11.6015ZM53.5505 16.808C53.5505 18.2392 53.2528 19.4838 52.6693 20.5535L53.3717 20.9365C54.0282 19.7329 54.3505 18.3528 54.3505 16.808H53.5505ZM52.6667 20.5584C52.1002 21.6329 51.3243 22.4549 50.3377 23.0352L50.7433 23.7248C51.8647 23.0651 52.7422 22.1305 53.3743 20.9316L52.6667 20.5584ZM50.3347 23.037C49.3675 23.6173 48.2821 23.91 47.0685 23.91V24.71C48.4176 24.71 49.6468 24.3827 50.7463 23.723L50.3347 23.037ZM47.0685 23.91C45.9154 23.91 44.9316 23.7112 44.1062 23.3273L43.7688 24.0527C44.7208 24.4955 45.8243 24.71 47.0685 24.71V23.91ZM44.1164 23.3322C43.3106 22.9293 42.6849 22.3682 42.2297 21.6474L41.5533 22.0746C42.0901 22.9244 42.8284 23.5827 43.7586 24.0478L44.1164 23.3322ZM41.4915 21.8623L41.5225 31.5343L42.3225 31.5317L42.2915 21.8597L41.4915 21.8623ZM41.9225 31.133H38.6675V31.933H41.9225V31.133ZM39.0675 31.533V9.771H38.2675V31.533H39.0675ZM46.2935 21.889C47.7275 21.889 48.8828 21.4324 49.6977 20.4777L49.0893 19.9583C48.4576 20.6983 47.5462 21.089 46.2935 21.089V21.889ZM49.7008 20.4741C50.4949 19.5212 50.8785 18.3194 50.8785 16.901H50.0785C50.0785 18.1692 49.7388 19.1788 49.0862 19.9619L49.7008 20.4741ZM50.8785 16.901C50.8785 15.4266 50.4979 14.2077 49.6945 13.2896L49.0925 13.8164C49.7358 14.5516 50.0785 15.5647 50.0785 16.901H50.8785ZM49.7014 13.2977C48.9049 12.3372 47.7454 11.882 46.2935 11.882V12.682C47.5696 12.682 48.4768 13.0742 49.0856 13.8083L49.7014 13.2977ZM46.2935 11.882C45.4794 11.882 44.7094 12.0864 43.9894 12.4914L44.3816 13.1886C44.9843 12.8496 45.6196 12.682 46.2935 12.682V11.882ZM43.9932 12.4893C43.2832 12.8786 42.7152 13.4499 42.2889 14.1904L42.9821 14.5896C43.3411 13.9661 43.8064 13.5041 44.3778 13.1907L43.9932 12.4893ZM42.2869 14.1939C41.8758 14.9246 41.6775 15.7695 41.6775 16.715H42.4775C42.4775 15.8832 42.6512 15.178 42.9841 14.5861L42.2869 14.1939ZM41.6775 16.715V16.932H42.4775V16.715H41.6775ZM41.6775 16.932C41.6775 17.8781 41.876 18.7393 42.282 19.5062L42.989 19.1318C42.651 18.4934 42.4775 17.7632 42.4775 16.932H41.6775ZM42.2889 19.5186C42.7132 20.2557 43.2761 20.8428 43.9765 21.272L44.3945 20.59C43.8136 20.2339 43.3431 19.7463 42.9821 19.1194L42.2889 19.5186ZM43.9846 21.2769C44.6883 21.6855 45.4607 21.889 46.2935 21.889V21.089C45.597 21.089 44.964 20.9205 44.3864 20.5851L43.9846 21.2769ZM60.0994 23.411L59.8995 23.7576L59.9074 23.7619L60.0994 23.411ZM57.4954 20.807L57.1469 21.0035L57.1513 21.0109L57.4954 20.807ZM57.3714 12.933L57.0163 12.7489L57.0136 12.7541L57.3714 12.933ZM65.8654 9.833L66.014 9.46161L66.014 9.46161L65.8654 9.833ZM67.6944 10.918L67.4309 11.2191L67.4383 11.2253L67.6944 10.918ZM68.6864 12.158L68.315 12.3066L69.0863 12.1684L68.6864 12.158ZM68.7484 9.771V9.371H68.3587L68.3485 9.76061L68.7484 9.771ZM71.9414 9.771H72.3414V9.371H71.9414V9.771ZM71.9414 24V24.4H72.3414V24H71.9414ZM68.7794 24L68.3795 24.0099L68.3892 24.4H68.7794V24ZM68.7174 21.489L69.1173 21.4791L68.3557 21.3182L68.7174 21.489ZM66.7954 23.473L67.0012 23.816L67.0067 23.8126L66.7954 23.473ZM67.1984 20.311L67.4813 20.5939L67.4848 20.5902L67.1984 20.311ZM67.8494 14.483L67.4959 14.6702L67.4959 14.6702L67.8494 14.483ZM66.3304 12.84L66.1214 13.181L66.1214 13.181L66.3304 12.84ZM61.1534 13.553L61.4576 13.8127L61.4607 13.8091L61.1534 13.553ZM61.1224 20.249L60.8114 20.5008L60.8182 20.5087L61.1224 20.249ZM63.6644 23.91C62.4483 23.91 61.3263 23.6263 60.2914 23.0601L59.9074 23.7619C61.0632 24.3943 62.3178 24.71 63.6644 24.71V23.91ZM60.2993 23.0645C59.2869 22.4805 58.4675 21.6628 57.8395 20.6031L57.1513 21.0109C57.846 22.1832 58.7626 23.1015 59.8995 23.7575L60.2993 23.0645ZM57.8439 20.6106C57.2419 19.5427 56.9344 18.2897 56.9344 16.839H56.1344C56.1344 18.4056 56.4675 19.798 57.1469 21.0034L57.8439 20.6106ZM56.9344 16.839C56.9344 15.4012 57.2038 14.1626 57.7292 13.1119L57.0136 12.7541C56.423 13.9354 56.1344 15.3008 56.1344 16.839H56.9344ZM57.7265 13.1171C58.2715 12.066 59.036 11.2545 60.0232 10.6738L59.6176 9.98423C58.4968 10.6435 57.6286 11.568 57.0163 12.7489L57.7265 13.1171ZM60.0232 10.6738C61.0062 10.0956 62.1737 9.799 63.5404 9.799V8.999C62.0551 8.999 60.7426 9.32244 59.6176 9.98423L60.0232 10.6738ZM63.5404 9.799C64.3193 9.799 65.0436 9.93509 65.7168 10.2044L66.014 9.46161C65.2405 9.15224 64.4148 8.999 63.5404 8.999V9.799ZM65.7168 10.2044C66.4056 10.4799 66.9746 10.8197 67.431 11.219L67.9578 10.617C67.4222 10.1483 66.7718 9.76475 66.014 9.46161L65.7168 10.2044ZM67.4383 11.2253C67.9047 11.614 68.183 11.9764 68.315 12.3066L69.0578 12.0094C68.8592 11.5129 68.4761 11.0487 67.9505 10.6107L67.4383 11.2253ZM69.0863 12.1684L69.1483 9.78139L68.3485 9.76061L68.2865 12.1476L69.0863 12.1684ZM68.7484 10.171H71.9414V9.371H68.7484V10.171ZM71.5414 9.771V24H72.3414V9.771H71.5414ZM71.9414 23.6H68.7794V24.4H71.9414V23.6ZM69.1793 23.9901L69.1173 21.4791L68.3175 21.4989L68.3795 24.0099L69.1793 23.9901ZM68.3557 21.3182C68.0464 21.9731 67.4699 22.5822 66.5841 23.1334L67.0067 23.8126C67.9809 23.2065 68.6857 22.4929 69.0791 21.6598L68.3557 21.3182ZM66.5896 23.13C65.726 23.6482 64.7543 23.91 63.6644 23.91V24.71C64.8892 24.71 66.0048 24.4138 67.0012 23.816L66.5896 23.13ZM64.2224 21.92C65.5025 21.92 66.5975 21.4776 67.4812 20.5938L66.9156 20.0282C66.1873 20.7564 65.2983 21.12 64.2224 21.12V21.92ZM67.4848 20.5902C68.3743 19.6779 68.8074 18.4976 68.8074 17.087H68.0074C68.0074 18.3218 67.6344 19.2908 66.912 20.0318L67.4848 20.5902ZM68.8074 17.087V16.87H68.0074V17.087H68.8074ZM68.8074 16.87C68.8074 15.9239 68.6089 15.0627 68.2029 14.2958L67.4959 14.6702C67.8339 15.3086 68.0074 16.0388 68.0074 16.87H68.8074ZM68.2029 14.2958C67.7994 13.5337 67.2448 12.9313 66.5394 12.499L66.1214 13.181C66.6974 13.5341 67.1554 14.027 67.4959 14.6702L68.2029 14.2958ZM66.5394 12.499C65.8347 12.067 65.0595 11.851 64.2224 11.851V12.651C64.9147 12.651 65.5448 12.8276 66.1214 13.181L66.5394 12.499ZM64.2224 11.851C62.8035 11.851 61.6588 12.3217 60.8461 13.2969L61.4607 13.8091C62.0947 13.0483 62.9959 12.651 64.2224 12.651V11.851ZM60.8492 13.2933C60.051 14.2283 59.6684 15.433 59.6684 16.87H60.4684C60.4684 15.579 60.8091 14.5724 61.4576 13.8127L60.8492 13.2933ZM59.6684 16.87C59.6684 18.3237 60.0384 19.5457 60.8115 20.5007L61.4333 19.9973C60.801 19.2163 60.4684 18.1856 60.4684 16.87H59.6684ZM60.8182 20.5087C61.6331 21.4634 62.7884 21.92 64.2224 21.92V21.12C62.9697 21.12 62.0583 20.7293 61.4266 19.9893L60.8182 20.5087ZM77.5287 12.499H77.9287V12.099H77.5287V12.499ZM75.0177 12.499H74.6177V12.899H75.0177V12.499ZM75.0177 9.771V9.371H74.6177V9.771H75.0177ZM77.5287 9.771V10.171H77.9287V9.771H77.5287ZM77.5287 3.974L77.4426 3.58336L77.1287 3.65249V3.974H77.5287ZM80.9077 3.23H81.3077V2.73234L80.8216 2.83936L80.9077 3.23ZM80.9077 9.771H80.5077V10.171H80.9077V9.771ZM84.1937 9.771H84.5937V9.371H84.1937V9.771ZM84.1937 12.499V12.899H84.5937V12.499H84.1937ZM80.9077 12.499V12.099H80.5077V12.499H80.9077ZM80.9077 24V24.4H81.3077V24H80.9077ZM77.5287 24H77.1287V24.4H77.5287V24ZM77.5287 12.099H75.0177V12.899H77.5287V12.099ZM75.4177 12.499V9.771H74.6177V12.499H75.4177ZM75.0177 10.171H77.5287V9.371H75.0177V10.171ZM77.9287 9.771V3.974H77.1287V9.771H77.9287ZM77.6147 4.36464L80.9937 3.62064L80.8216 2.83936L77.4426 3.58336L77.6147 4.36464ZM80.5077 3.23V9.771H81.3077V3.23H80.5077ZM80.9077 10.171H84.1937V9.371H80.9077V10.171ZM83.7937 9.771V12.499H84.5937V9.771H83.7937ZM84.1937 12.099H80.9077V12.899H84.1937V12.099ZM80.5077 12.499V24H81.3077V12.499H80.5077ZM80.9077 23.6H77.5287V24.4H80.9077V23.6ZM77.9287 24V12.499H77.1287V24H77.9287ZM87.9996 12.499H88.3996V12.099H87.9996V12.499ZM85.4886 12.499H85.0886V12.899H85.4886V12.499ZM85.4886 9.771V9.371H85.0886V9.771H85.4886ZM87.9996 9.771V10.171H88.3996V9.771H87.9996ZM87.9996 3.974L87.9136 3.58336L87.5996 3.65249V3.974H87.9996ZM91.3786 3.23H91.7786V2.73234L91.2926 2.83936L91.3786 3.23ZM91.3786 9.771H90.9786V10.171H91.3786V9.771ZM94.6646 9.771H95.0646V9.371H94.6646V9.771ZM94.6646 12.499V12.899H95.0646V12.499H94.6646ZM91.3786 12.499V12.099H90.9786V12.499H91.3786ZM91.3786 24V24.4H91.7786V24H91.3786ZM87.9996 24H87.5996V24.4H87.9996V24ZM87.9996 12.099H85.4886V12.899H87.9996V12.099ZM85.8886 12.499V9.771H85.0886V12.499H85.8886ZM85.4886 10.171H87.9996V9.371H85.4886V10.171ZM88.3996 9.771V3.974H87.5996V9.771H88.3996ZM88.0857 4.36464L91.4647 3.62064L91.2926 2.83936L87.9136 3.58336L88.0857 4.36464ZM90.9786 3.23V9.771H91.7786V3.23H90.9786ZM91.3786 10.171H94.6646V9.371H91.3786V10.171ZM94.2646 9.771V12.499H95.0646V9.771H94.2646ZM94.6646 12.099H91.3786V12.899H94.6646V12.099ZM90.9786 12.499V24H91.7786V12.499H90.9786ZM91.3786 23.6H87.9996V24.4H91.3786V23.6ZM88.3996 24V12.499H87.5996V24H88.3996ZM99.7106 23.318L99.5048 23.661L99.5095 23.6637L99.7106 23.318ZM97.1996 20.621L96.838 20.792L96.8392 20.7945L97.1996 20.621ZM97.3236 12.933L96.9751 12.7366L96.9725 12.7415L97.3236 12.933ZM99.9586 10.329L100.148 10.6814L100.153 10.6787L99.9586 10.329ZM108.608 11.228L108.305 11.4896L108.31 11.495L108.608 11.228ZM110.127 18.048V18.448H110.487L110.524 18.0892L110.127 18.048ZM99.8966 18.048V17.648H99.418L99.503 18.119L99.8966 18.048ZM101.23 20.776L100.972 21.0818L100.976 21.0856L101.23 20.776ZM106.5 21.365L106.4 20.9777L106.5 21.365ZM108.267 20.683L108.634 20.5254L108.462 20.1235L108.077 20.3308L108.267 20.683ZM109.29 23.07L109.505 23.4069L109.791 23.2241L109.657 22.9124L109.29 23.07ZM107.182 23.938L107.074 23.5527L107.182 23.938ZM106.965 15.723V16.123H107.358L107.365 15.7295L106.965 15.723ZM106.128 13.026L105.855 13.3192L105.861 13.3244L106.128 13.026ZM99.8966 15.723L99.5006 15.6669L99.436 16.123H99.8966V15.723ZM103.958 23.91C102.314 23.91 100.972 23.5892 99.9118 22.9723L99.5095 23.6637C100.722 24.3695 102.212 24.71 103.958 24.71V23.91ZM99.9164 22.975C98.8418 22.3302 98.0611 21.4881 97.56 20.4475L96.8392 20.7945C97.4128 21.9859 98.3061 22.9418 99.5048 23.661L99.9164 22.975ZM97.5612 20.45C97.0509 19.3704 96.7936 18.1893 96.7936 16.901H95.9936C95.9936 18.2993 96.2737 19.5982 96.838 20.792L97.5612 20.45ZM96.7936 16.901C96.7936 15.4481 97.0918 14.1934 97.6748 13.1245L96.9725 12.7415C96.3155 13.9459 95.9936 15.3365 95.9936 16.901H96.7936ZM97.6721 13.1294C98.2767 12.0567 99.1007 11.2437 100.148 10.6814L99.7694 9.9766C98.5845 10.6129 97.6519 11.536 96.9752 12.7366L97.6721 13.1294ZM100.153 10.6787C101.204 10.0949 102.396 9.799 103.741 9.799V8.999C102.274 8.999 100.946 9.32308 99.7644 9.97934L100.153 10.6787ZM103.741 9.799C105.859 9.799 107.352 10.3866 108.305 11.4896L108.91 10.9664C107.756 9.6307 106.004 8.999 103.741 8.999V9.799ZM108.31 11.495C109.298 12.5974 109.82 14.184 109.82 16.312H110.62C110.62 14.0587 110.066 12.256 108.905 10.961L108.31 11.495ZM109.82 16.312C109.82 16.8552 109.789 17.4201 109.729 18.0068L110.524 18.0892C110.588 17.4772 110.62 16.8848 110.62 16.312H109.82ZM110.127 17.648H99.8966V18.448H110.127V17.648ZM99.503 18.119C99.7391 19.4287 100.212 20.4407 100.972 21.0817L101.488 20.4703C100.925 19.9953 100.509 19.1886 100.29 17.977L99.503 18.119ZM100.976 21.0856C101.752 21.7201 102.793 22.013 104.051 22.013V21.213C102.911 21.213 102.071 20.9479 101.483 20.4664L100.976 21.0856ZM104.051 22.013C105.061 22.013 105.914 21.9291 106.6 21.7523L106.4 20.9777C105.804 21.1315 105.024 21.213 104.051 21.213V22.013ZM106.6 21.7523C107.269 21.5796 107.888 21.341 108.456 21.0352L108.077 20.3308C107.57 20.6036 107.012 20.8197 106.4 20.9777L106.6 21.7523ZM107.899 20.8406L108.922 23.2276L109.657 22.9124L108.634 20.5254L107.899 20.8406ZM109.074 22.7331C108.603 23.0345 107.942 23.3106 107.074 23.5527L107.289 24.3233C108.199 24.0694 108.943 23.7668 109.505 23.4069L109.074 22.7331ZM107.074 23.5527C106.231 23.7881 105.194 23.91 103.958 23.91V24.71C105.242 24.71 106.355 24.5839 107.289 24.3233L107.074 23.5527ZM107.365 15.7295C107.386 14.4055 107.102 13.36 106.394 12.7276L105.861 13.3244C106.31 13.7253 106.585 14.4778 106.565 15.7165L107.365 15.7295ZM106.4 12.7329C105.724 12.1053 104.786 11.82 103.648 11.82V12.62C104.658 12.62 105.374 12.8721 105.855 13.3191L106.4 12.7329ZM103.648 11.82C102.49 11.82 101.527 12.1332 100.809 12.8034C100.096 13.4696 99.6739 14.4427 99.5006 15.6669L100.293 15.7791C100.45 14.668 100.818 13.8896 101.355 13.3881C101.888 12.8906 102.636 12.62 103.648 12.62V11.82ZM99.8966 16.123H106.965V15.323H99.8966V16.123ZM113.482 9.771V9.371H113.082V9.771H113.482ZM116.83 9.771H117.23V9.371H116.83V9.771ZM116.83 12.561H116.43L117.207 12.6924L116.83 12.561ZM118.442 10.267L118.687 10.5827L118.687 10.5827L118.442 10.267ZM122.348 9.585L122.744 9.63953L122.783 9.35546L122.527 9.22723L122.348 9.585ZM121.883 12.964L121.661 13.2968L122.192 13.6509L122.279 13.0185L121.883 12.964ZM118.008 13.708L117.764 13.3909L117.76 13.394L118.008 13.708ZM116.83 24V24.4H117.23V24H116.83ZM113.482 24H113.082V24.4H113.482V24ZM113.482 10.171H116.83V9.371H113.482V10.171ZM116.43 9.771V12.561H117.23V9.771H116.43ZM117.207 12.6924C117.515 11.8095 118.008 11.1107 118.687 10.5827L118.196 9.95126C117.387 10.5806 116.806 11.4112 116.452 12.4296L117.207 12.6924ZM118.687 10.5827C119.36 10.0592 120.121 9.799 120.984 9.799V8.999C119.945 8.999 119.011 9.31747 118.196 9.95126L118.687 10.5827ZM120.984 9.799C121.646 9.799 122.014 9.86529 122.169 9.94277L122.527 9.22723C122.185 9.0567 121.644 8.999 120.984 8.999V9.799ZM121.951 9.53047L121.486 12.9095L122.279 13.0185L122.744 9.63953L121.951 9.53047ZM122.105 12.6312C121.938 12.5202 121.721 12.4629 121.502 12.4292C121.273 12.3939 120.995 12.378 120.674 12.378V13.178C120.973 13.178 121.206 13.1931 121.38 13.2198C121.564 13.2481 121.641 13.2838 121.661 13.2968L122.105 12.6312ZM120.674 12.378C119.61 12.378 118.636 12.7199 117.764 13.3909L118.252 14.025C118.991 13.4561 119.795 13.178 120.674 13.178V12.378ZM117.76 13.394C116.846 14.1151 116.43 15.245 116.43 16.684H117.23C117.23 15.395 117.598 14.5409 118.255 14.022L117.76 13.394ZM116.43 16.684V24H117.23V16.684H116.43ZM116.83 23.6H113.482V24.4H116.83V23.6ZM113.882 24V9.771H113.082V24H113.882ZM124.56 9.771V9.371H124.16V9.771H124.56ZM127.846 9.771L128.246 9.76624L128.242 9.371H127.846V9.771ZM127.877 12.375L127.477 12.3798L128.242 12.5399L127.877 12.375ZM129.737 10.236L129.517 9.90193L129.517 9.90193L129.737 10.236ZM136.092 10.329L135.844 10.643L135.85 10.647L136.092 10.329ZM137.673 12.871L137.285 12.9663L137.285 12.9663L137.673 12.871ZM138.076 24V24.4H138.476V24H138.076ZM134.728 24H134.328V24.4H134.728V24ZM134.201 13.367L133.835 13.5268L133.836 13.5303L134.201 13.367ZM130.14 12.747L130.341 13.093L130.349 13.088L130.14 12.747ZM128.528 14.39L128.185 14.1842L128.181 14.1915L128.528 14.39ZM127.908 24V24.4H128.308V24H127.908ZM124.56 24H124.16V24.4H124.56V24ZM124.56 10.171H127.846V9.371H124.56V10.171ZM127.446 9.77576L127.477 12.3798L128.277 12.3702L128.246 9.76624L127.446 9.77576ZM128.242 12.5399C128.601 11.7453 129.169 11.0893 129.957 10.5701L129.517 9.90193C128.611 10.4987 127.939 11.2687 127.513 12.2101L128.242 12.5399ZM129.957 10.5701C130.732 10.0601 131.645 9.799 132.713 9.799V8.999C131.508 8.999 130.438 9.29586 129.517 9.90193L129.957 10.5701ZM132.713 9.799C134.131 9.799 135.156 10.0994 135.844 10.643L136.34 10.015C135.458 9.31856 134.23 8.999 132.713 8.999V9.799ZM135.85 10.647C136.552 11.1832 137.035 11.9464 137.285 12.9663L138.062 12.7757C137.775 11.6049 137.203 10.6735 136.335 10.011L135.85 10.647ZM137.285 12.9663C137.543 14.0182 137.676 15.4088 137.676 17.149H138.476C138.476 15.3759 138.341 13.9145 138.062 12.7757L137.285 12.9663ZM137.676 17.149V24H138.476V17.149H137.676ZM138.076 23.6H134.728V24.4H138.076V23.6ZM135.128 24V17.242H134.328V24H135.128ZM135.128 17.242C135.128 15.4359 134.954 14.0712 134.566 13.2037L133.836 13.5303C134.151 14.2335 134.328 15.4521 134.328 17.242H135.128ZM134.568 13.2072C134.36 12.7291 134.033 12.3577 133.59 12.1108C133.153 11.8672 132.626 11.758 132.031 11.758V12.558C132.532 12.558 132.915 12.6503 133.201 12.8097C133.481 12.9658 133.692 13.1989 133.835 13.5268L134.568 13.2072ZM132.031 11.758C131.323 11.758 130.621 11.9829 129.931 12.406L130.349 13.088C130.94 12.7257 131.499 12.558 132.031 12.558V11.758ZM129.939 12.4011C129.233 12.8115 128.649 13.411 128.185 14.1842L128.871 14.5958C129.275 13.9223 129.767 13.4265 130.341 13.0929L129.939 12.4011ZM128.181 14.1915C127.728 14.9847 127.508 15.9027 127.508 16.932H128.308C128.308 16.0186 128.502 15.242 128.876 14.5885L128.181 14.1915ZM127.508 16.932V24H128.308V16.932H127.508ZM127.908 23.6H124.56V24.4H127.908V23.6ZM124.96 24V9.771H124.16V24H124.96ZM142.298 9.771V9.371H141.898V9.771H142.298ZM145.522 9.771H145.922V9.371H145.522V9.771ZM145.522 12.406H145.122V13.9224L145.87 12.6033L145.522 12.406ZM155.721 11.321L155.434 11.5992L155.436 11.6015L155.721 11.321ZM156.651 20.745L156.3 20.5534L156.297 20.5584L156.651 20.745ZM154.171 23.38L153.969 23.0352L153.966 23.037L154.171 23.38ZM147.568 23.69L147.389 24.0479L147.4 24.0527L147.568 23.69ZM145.522 21.861L145.861 21.6474L145.118 20.4715L145.122 21.8623L145.522 21.861ZM145.553 31.533V31.933H145.955L145.953 31.5317L145.553 31.533ZM142.298 31.533H141.898V31.933H142.298V31.533ZM153.024 20.218L153.329 20.4777L153.332 20.4741L153.024 20.218ZM153.024 13.553L152.716 13.8084L152.723 13.8164L153.024 13.553ZM147.816 12.84L148.009 13.1907L148.012 13.1886L147.816 12.84ZM146.266 14.39L145.92 14.1904L145.918 14.1939L146.266 14.39ZM146.266 19.319L145.913 19.5062L145.916 19.5124L145.92 19.5186L146.266 19.319ZM147.816 20.931L147.607 21.2721L147.615 21.2769L147.816 20.931ZM142.298 10.171H145.522V9.371H142.298V10.171ZM145.122 9.771V12.406H145.922V9.771H145.122ZM145.87 12.6033C146.932 10.7313 148.572 9.799 150.854 9.799V8.999C148.301 8.999 146.386 10.0713 145.174 12.2087L145.87 12.6033ZM150.854 9.799C152.765 9.799 154.279 10.4057 155.434 11.5992L156.009 11.0428C154.684 9.67361 152.953 8.999 150.854 8.999V9.799ZM155.436 11.6015C156.58 12.7639 157.181 14.4774 157.181 16.808H157.981C157.981 14.344 157.343 12.3994 156.006 11.0405L155.436 11.6015ZM157.181 16.808C157.181 18.2392 156.884 19.4838 156.3 20.5535L157.002 20.9365C157.659 19.7329 157.981 18.3528 157.981 16.808H157.181ZM156.297 20.5584C155.731 21.6329 154.955 22.4549 153.969 23.0352L154.374 23.7248C155.496 23.0651 156.373 22.1305 157.005 20.9316L156.297 20.5584ZM153.966 23.037C152.998 23.6173 151.913 23.91 150.699 23.91V24.71C152.048 24.71 153.278 24.3827 154.377 23.723L153.966 23.037ZM150.699 23.91C149.546 23.91 148.562 23.7112 147.737 23.3273L147.4 24.0527C148.352 24.4955 149.455 24.71 150.699 24.71V23.91ZM147.747 23.3322C146.941 22.9293 146.316 22.3682 145.861 21.6474L145.184 22.0746C145.721 22.9244 146.459 23.5827 147.389 24.0478L147.747 23.3322ZM145.122 21.8623L145.153 31.5343L145.953 31.5317L145.922 21.8597L145.122 21.8623ZM145.553 31.133H142.298V31.933H145.553V31.133ZM142.698 31.533V9.771H141.898V31.533H142.698ZM149.924 21.889C151.358 21.889 152.514 21.4324 153.329 20.4777L152.72 19.9583C152.088 20.6983 151.177 21.089 149.924 21.089V21.889ZM153.332 20.4741C154.126 19.5212 154.509 18.3194 154.509 16.901H153.709C153.709 18.1692 153.37 19.1788 152.717 19.9619L153.332 20.4741ZM154.509 16.901C154.509 15.4266 154.129 14.2077 153.325 13.2896L152.723 13.8164C153.367 14.5516 153.709 15.5647 153.709 16.901H154.509ZM153.332 13.2977C152.536 12.3372 151.376 11.882 149.924 11.882V12.682C151.2 12.682 152.108 13.0742 152.716 13.8083L153.332 13.2977ZM149.924 11.882C149.11 11.882 148.34 12.0864 147.62 12.4914L148.012 13.1886C148.615 12.8496 149.25 12.682 149.924 12.682V11.882ZM147.624 12.4893C146.914 12.8786 146.346 13.4499 145.92 14.1904L146.613 14.5896C146.972 13.9661 147.437 13.5041 148.009 13.1907L147.624 12.4893ZM145.918 14.1939C145.507 14.9246 145.308 15.7695 145.308 16.715H146.108C146.108 15.8832 146.282 15.178 146.615 14.5861L145.918 14.1939ZM145.308 16.715V16.932H146.108V16.715H145.308ZM145.308 16.932C145.308 17.8781 145.507 18.7393 145.913 19.5062L146.62 19.1318C146.282 18.4934 146.108 17.7632 146.108 16.932H145.308ZM145.92 19.5186C146.344 20.2557 146.907 20.8428 147.607 21.272L148.025 20.59C147.444 20.2339 146.974 19.7463 146.613 19.1194L145.92 19.5186ZM147.615 21.2769C148.319 21.6855 149.091 21.889 149.924 21.889V21.089C149.228 21.089 148.595 20.9205 148.017 20.5851L147.615 21.2769ZM163.73 23.411L163.53 23.7576L163.538 23.7619L163.73 23.411ZM161.126 20.807L160.778 21.0035L160.782 21.0109L161.126 20.807ZM161.002 12.933L160.647 12.7489L160.644 12.7541L161.002 12.933ZM169.496 9.833L169.645 9.46161L169.645 9.46161L169.496 9.833ZM171.325 10.918L171.062 11.2191L171.069 11.2253L171.325 10.918ZM172.317 12.158L171.946 12.3066L172.717 12.1684L172.317 12.158ZM172.379 9.771V9.371H171.989L171.979 9.76061L172.379 9.771ZM175.572 9.771H175.972V9.371H175.572V9.771ZM175.572 24V24.4H175.972V24H175.572ZM172.41 24L172.01 24.0099L172.02 24.4H172.41V24ZM172.348 21.489L172.748 21.4791L171.987 21.3182L172.348 21.489ZM170.426 23.473L170.632 23.816L170.638 23.8126L170.426 23.473ZM170.829 20.311L171.112 20.5939L171.116 20.5902L170.829 20.311ZM171.48 14.483L171.127 14.6702L171.127 14.6702L171.48 14.483ZM169.961 12.84L169.752 13.181L169.752 13.181L169.961 12.84ZM164.784 13.553L165.088 13.8127L165.092 13.8091L164.784 13.553ZM164.753 20.249L164.442 20.5008L164.449 20.5087L164.753 20.249ZM167.295 23.91C166.079 23.91 164.957 23.6263 163.922 23.0601L163.538 23.7619C164.694 24.3943 165.949 24.71 167.295 24.71V23.91ZM163.93 23.0645C162.918 22.4805 162.098 21.6628 161.47 20.6031L160.782 21.0109C161.477 22.1832 162.393 23.1015 163.53 23.7575L163.93 23.0645ZM161.475 20.6106C160.873 19.5427 160.565 18.2897 160.565 16.839H159.765C159.765 18.4056 160.098 19.798 160.778 21.0034L161.475 20.6106ZM160.565 16.839C160.565 15.4012 160.835 14.1626 161.36 13.1119L160.644 12.7541C160.054 13.9354 159.765 15.3008 159.765 16.839H160.565ZM161.357 13.1171C161.902 12.066 162.667 11.2545 163.654 10.6738L163.248 9.98423C162.128 10.6435 161.259 11.568 160.647 12.7489L161.357 13.1171ZM163.654 10.6738C164.637 10.0956 165.805 9.799 167.171 9.799V8.999C165.686 8.999 164.373 9.32244 163.248 9.98423L163.654 10.6738ZM167.171 9.799C167.95 9.799 168.674 9.93509 169.348 10.2044L169.645 9.46161C168.871 9.15224 168.046 8.999 167.171 8.999V9.799ZM169.348 10.2044C170.036 10.4799 170.605 10.8197 171.062 11.219L171.589 10.617C171.053 10.1483 170.403 9.76475 169.645 9.46161L169.348 10.2044ZM171.069 11.2253C171.536 11.614 171.814 11.9764 171.946 12.3066L172.689 12.0094C172.49 11.5129 172.107 11.0487 171.581 10.6107L171.069 11.2253ZM172.717 12.1684L172.779 9.78139L171.979 9.76061L171.917 12.1476L172.717 12.1684ZM172.379 10.171H175.572V9.371H172.379V10.171ZM175.172 9.771V24H175.972V9.771H175.172ZM175.572 23.6H172.41V24.4H175.572V23.6ZM172.81 23.9901L172.748 21.4791L171.948 21.4989L172.01 24.0099L172.81 23.9901ZM171.987 21.3182C171.677 21.9731 171.101 22.5822 170.215 23.1334L170.638 23.8126C171.612 23.2065 172.317 22.4929 172.71 21.6598L171.987 21.3182ZM170.22 23.13C169.357 23.6482 168.385 23.91 167.295 23.91V24.71C168.52 24.71 169.636 24.4138 170.632 23.816L170.22 23.13ZM167.853 21.92C169.133 21.92 170.228 21.4776 171.112 20.5938L170.546 20.0282C169.818 20.7564 168.929 21.12 167.853 21.12V21.92ZM171.116 20.5902C172.005 19.6779 172.438 18.4976 172.438 17.087H171.638C171.638 18.3218 171.265 19.2908 170.543 20.0318L171.116 20.5902ZM172.438 17.087V16.87H171.638V17.087H172.438ZM172.438 16.87C172.438 15.9239 172.24 15.0627 171.834 14.2958L171.127 14.6702C171.465 15.3086 171.638 16.0388 171.638 16.87H172.438ZM171.834 14.2958C171.43 13.5337 170.876 12.9313 170.17 12.499L169.752 13.181C170.328 13.5341 170.786 14.027 171.127 14.6702L171.834 14.2958ZM170.17 12.499C169.466 12.067 168.69 11.851 167.853 11.851V12.651C168.545 12.651 169.176 12.8276 169.752 13.181L170.17 12.499ZM167.853 11.851C166.434 11.851 165.29 12.3217 164.477 13.2969L165.092 13.8091C165.726 13.0483 166.627 12.651 167.853 12.651V11.851ZM164.48 13.2933C163.682 14.2283 163.299 15.433 163.299 16.87H164.099C164.099 15.579 164.44 14.5724 165.088 13.8127L164.48 13.2933ZM163.299 16.87C163.299 18.3237 163.669 19.5457 164.442 20.5007L165.064 19.9973C164.432 19.2163 164.099 18.1856 164.099 16.87H163.299ZM164.449 20.5087C165.264 21.4634 166.419 21.92 167.853 21.92V21.12C166.601 21.12 165.689 20.7293 165.057 19.9893L164.449 20.5087ZM182.647 23.411L182.448 23.7576L182.455 23.7619L182.647 23.411ZM180.043 20.807L179.695 21.0035L179.699 21.0109L180.043 20.807ZM180.973 11.445L181.265 11.7187L181.267 11.7165L180.973 11.445ZM189.374 10.298L189.168 10.6404L189.173 10.6435L189.374 10.298ZM191.389 12.406L191.021 12.5625L191.789 12.3804L191.389 12.406ZM191.234 9.988H190.834V10.0008L190.835 10.0136L191.234 9.988ZM191.234 1.215V0.815H190.834V1.215H191.234ZM194.52 1.215H194.92V0.815H194.52V1.215ZM194.52 24V24.4H194.92V24H194.52ZM191.327 24L190.928 24.0099L190.937 24.4H191.327V24ZM191.265 21.489L191.665 21.4791L190.904 21.3182L191.265 21.489ZM189.343 23.473L189.549 23.816L189.555 23.8126L189.343 23.473ZM189.746 20.28L190.029 20.5629L190.033 20.5592L189.746 20.28ZM190.397 14.452L190.044 14.6392L190.044 14.6392L190.397 14.452ZM188.878 12.809L189.088 12.468L189.088 12.468L188.878 12.809ZM183.701 13.522L184.006 13.7817L184.009 13.7781L183.701 13.522ZM183.67 20.218L183.359 20.4698L183.366 20.4777L183.67 20.218ZM186.212 23.91C184.996 23.91 183.874 23.6263 182.839 23.0601L182.455 23.7619C183.611 24.3943 184.866 24.71 186.212 24.71V23.91ZM182.847 23.0645C181.835 22.4805 181.016 21.6628 180.388 20.6031L179.699 21.0109C180.394 22.1832 181.311 23.1015 182.448 23.7575L182.847 23.0645ZM180.392 20.6106C179.79 19.5427 179.482 18.2897 179.482 16.839H178.682C178.682 18.4056 179.016 19.798 179.695 21.0034L180.392 20.6106ZM179.482 16.839C179.482 14.6642 180.089 12.9722 181.265 11.7187L180.682 11.1713C179.337 12.6045 178.682 14.5085 178.682 16.839H179.482ZM181.267 11.7165C182.44 10.4475 184.031 9.799 186.088 9.799V8.999C183.847 8.999 182.028 9.71446 180.68 11.1735L181.267 11.7165ZM186.088 9.799C187.217 9.799 188.24 10.0801 189.168 10.6404L189.581 9.95563C188.525 9.31726 187.357 8.999 186.088 8.999V9.799ZM189.173 10.6435C190.111 11.1909 190.712 11.8348 191.021 12.5625L191.758 12.2495C191.364 11.3239 190.622 10.5624 189.576 9.95249L189.173 10.6435ZM191.789 12.3804L191.634 9.96241L190.835 10.0136L190.99 12.4316L191.789 12.3804ZM191.634 9.988V1.215H190.834V9.988H191.634ZM191.234 1.615H194.52V0.815H191.234V1.615ZM194.12 1.215V24H194.92V1.215H194.12ZM194.52 23.6H191.327V24.4H194.52V23.6ZM191.727 23.9901L191.665 21.4791L190.866 21.4989L190.928 24.0099L191.727 23.9901ZM190.904 21.3182C190.595 21.9731 190.018 22.5822 189.132 23.1334L189.555 23.8126C190.529 23.2065 191.234 22.4929 191.627 21.6598L190.904 21.3182ZM189.138 23.13C188.274 23.6482 187.302 23.91 186.212 23.91V24.71C187.437 24.71 188.553 24.4138 189.549 23.816L189.138 23.13ZM186.77 21.889C188.051 21.889 189.146 21.4466 190.029 20.5628L189.464 19.9972C188.735 20.7254 187.846 21.089 186.77 21.089V21.889ZM190.033 20.5592C190.922 19.6469 191.355 18.4666 191.355 17.056H190.555C190.555 18.2908 190.183 19.2598 189.46 20.0008L190.033 20.5592ZM191.355 17.056V16.839H190.555V17.056H191.355ZM191.355 16.839C191.355 15.8929 191.157 15.0317 190.751 14.2648L190.044 14.6392C190.382 15.2776 190.555 16.0078 190.555 16.839H191.355ZM190.751 14.2648C190.348 13.5027 189.793 12.9003 189.088 12.468L188.669 13.15C189.245 13.5031 189.703 13.996 190.044 14.6392L190.751 14.2648ZM189.088 12.468C188.383 12.036 187.608 11.82 186.77 11.82V12.62C187.463 12.62 188.093 12.7966 188.669 13.15L189.088 12.468ZM186.77 11.82C185.352 11.82 184.207 12.2907 183.394 13.2659L184.009 13.7781C184.643 13.0173 185.544 12.62 186.77 12.62V11.82ZM183.397 13.2623C182.599 14.1973 182.216 15.402 182.216 16.839H183.016C183.016 15.548 183.357 14.5414 184.006 13.7817L183.397 13.2623ZM182.216 16.839C182.216 18.2927 182.587 19.5147 183.36 20.4697L183.981 19.9663C183.349 19.1853 183.016 18.1546 183.016 16.839H182.216ZM183.366 20.4777C184.181 21.4324 185.337 21.889 186.77 21.889V21.089C185.518 21.089 184.606 20.6983 183.975 19.9583L183.366 20.4777Z" fill="#2B2992"/>
<path fill-rule="evenodd" clip-rule="evenodd" d="M16 1H16.75L16.7369 1.02375C22.6066 1.4033 27.25 6.28439 27.25 12.25C27.25 18.4632 22.2132 23.5 16 23.5H12.625L8.5 31H1L8.5 16H16C18.0711 16 19.75 14.3211 19.75 12.25C19.75 10.1789 18.0711 8.5 16 8.5H12.625L8.5 16H1L8.5 1H16Z" fill="url(#paint0_linear)"/>
</g>
<defs>
<linearGradient id="paint0_linear" x1="16.9742" y1="-1.9714" x2="26.9133" y2="27.2797" gradientUnits="userSpaceOnUse">
<stop stop-color="#119EA7"/>
<stop offset="1" stop-color="#03FBA2"/>
</linearGradient>
<clipPath id="clip0">
<rect width="198" height="32" fill="white"/>
</clipPath>
</defs>
</svg>
